<svg aria-hidden="true" style="position: absolute; width: 0; height: 0; overflow: hidden;" version="1.1" xmlns="http://www.w3.org/2000/svg" xmlns:xlink="http://www.w3.org/1999/xlink">
<defs>
<symbol id="icon-facebook" viewBox="0 0 32 32">
<path d="M18.773 5.556c0.229 0 0.457 0 0.914 0v3.429c-0.229 0-0.686 0-1.143 0s-0.914 0-1.143 0.229c-0.229 0.229-0.229 0.457-0.229 0.99 0 0.457 0 0.762 0 1.219h2.514v2.895h-2.514v12.571h-3.886v-12.648h-2.057v-2.895h2.057v-0.99c0-1.676 0.229-2.895 0.686-3.429 0.686-0.99 2.057-1.448 4.114-1.448 0.229 0.076 0.457 0.076 0.686 0.076z"></path>
</symbol>
<symbol id="icon-instagram" viewBox="0 0 32 32">
<path d="M27.533 11.381c-0.015-1.023-0.204-2.038-0.567-2.995-0.635-1.634-1.928-2.926-3.565-3.559-0.946-0.356-1.947-0.546-2.96-0.568-1.302-0.058-1.715-0.074-5.022-0.074s-3.73 0-5.023 0.074c-1.011 0.022-2.012 0.212-2.958 0.568-1.637 0.633-2.931 1.925-3.565 3.559-0.356 0.945-0.548 1.944-0.567 2.953-0.058 1.302-0.076 1.714-0.076 5.015s0 3.722 0.076 5.015c0.020 1.011 0.211 2.009 0.567 2.956 0.635 1.633 1.928 2.925 3.566 3.558 0.942 0.368 1.943 0.576 2.958 0.608 1.304 0.058 1.717 0.076 5.023 0.076s3.73 0 5.023-0.076c1.011-0.020 2.012-0.211 2.96-0.566 1.637-0.634 2.93-1.926 3.565-3.559 0.356-0.946 0.547-1.944 0.567-2.956 0.058-1.3 0.076-1.712 0.076-5.015-0.003-3.301-0.003-3.72-0.079-5.013zM15.411 22.595c-3.458 0-6.259-2.797-6.259-6.249s2.801-6.249 6.259-6.249c3.455 0 6.259 2.797 6.259 6.249s-2.804 6.249-6.259 6.249zM21.919 11.324c-0.808 0-1.459-0.652-1.459-1.457s0.651-1.457 1.459-1.457c0.806 0 1.458 0.652 1.458 1.457s-0.653 1.457-1.458 1.457z"></path>
<path d="M15.413 20.162c2.106 0 3.813-1.707 3.813-3.813s-1.707-3.813-3.813-3.813c-2.106 0-3.813 1.707-3.813 3.813s1.707 3.813 3.813 3.813z"></path>
</symbol>
<symbol id="icon-telegram" viewBox="0 0 36 32">
<path d="M31.303 1.505c0.426-0.184 0.893-0.247 1.351-0.183s0.892 0.252 1.255 0.545 0.643 0.681 0.81 1.122c0.167 0.442 0.216 0.921 0.141 1.388l-3.912 24.302c-0.379 2.344-2.891 3.688-4.99 2.521-1.756-0.977-4.364-2.482-6.71-4.053-1.173-0.786-4.766-3.303-4.324-5.095 0.379-1.532 6.417-7.287 9.866-10.709 1.354-1.344 0.737-2.12-0.862-0.883-3.971 3.070-10.346 7.739-12.454 9.054-1.859 1.159-2.829 1.357-3.988 1.159-2.115-0.36-4.076-0.919-5.677-1.599-2.163-0.919-2.058-3.964-0.002-4.851l29.496-12.719z"></path>
</symbol>
<symbol id="icon-cart" viewBox="0 0 32 32">
<path d="M0 1.684c0-0.93 0.667-1.684 1.49-1.684 2.421 0 4.57 1.751 5.335 4.347l0.208 0.705h18.339c0.977-0 1.808-0 2.481 0.068 0.7 0.071 1.4 0.227 2.039 0.666 0.898 0.616 1.575 1.571 1.913 2.695 0.24 0.801 0.224 1.607 0.133 2.395-0.087 0.757-0.268 1.674-0.48 2.752l-0.456 2.321c-0.216 1.097-0.395 2.010-0.593 2.752-0.207 0.776-0.462 1.475-0.875 2.115-0.622 0.962-1.458 1.72-2.423 2.197-0.642 0.318-1.301 0.447-2.016 0.507-0.683 0.058-1.511 0.058-2.505 0.058h-7.932c-0.994 0-1.822 0-2.505-0.058-0.715-0.060-1.374-0.19-2.016-0.507-0.965-0.477-1.801-1.236-2.423-2.197-0.413-0.64-0.668-1.339-0.875-2.115-0.198-0.741-0.378-1.655-0.593-2.752l-1.723-8.763-0.523-1.775c-0.36-1.221-1.37-2.044-2.509-2.044-0.823 0-1.49-0.754-1.49-1.684zM7.817 8.421l1.325 6.738c0.231 1.173 0.387 1.962 0.549 2.569 0.156 0.586 0.29 0.887 0.429 1.101 0.311 0.481 0.729 0.86 1.212 1.099 0.214 0.106 0.504 0.188 1.044 0.234 0.559 0.047 1.275 0.048 2.338 0.048h7.823c1.063 0 1.779-0.001 2.338-0.048 0.54-0.046 0.829-0.128 1.044-0.234 0.483-0.239 0.901-0.618 1.212-1.099 0.138-0.214 0.272-0.515 0.429-1.101 0.162-0.607 0.318-1.396 0.549-2.569l0.43-2.188c0.23-1.171 0.38-1.94 0.448-2.529 0.067-0.576 0.028-0.786 0-0.878-0.112-0.375-0.338-0.693-0.637-0.898-0.073-0.050-0.246-0.139-0.758-0.19-0.524-0.053-1.221-0.054-2.281-0.054h-17.49z"></path>
<path d="M14.899 28.632c0 1.86-1.334 3.368-2.98 3.368s-2.98-1.508-2.98-3.368 1.334-3.368 2.98-3.368c1.646 0 2.98 1.508 2.98 3.368z"></path>
<path d="M25.328 32c1.646 0 2.98-1.508 2.98-3.368s-1.334-3.368-2.98-3.368c-1.646 0-2.98 1.508-2.98 3.368s1.334 3.368 2.98 3.368z"></path>
</symbol>
<symbol id="icon-heart" viewBox="0 0 38 32">
<path d="M3.597 16.555l15.317 15.445 15.317-15.445c1.803-1.819 2.816-4.285 2.816-6.857v-0.435c0-5.116-4.112-9.262-9.185-9.262-2.791 0-5.43 1.279-7.173 3.476l-1.776 2.238-1.776-2.238c-1.743-2.197-4.382-3.476-7.173-3.476-5.073 0-9.185 4.147-9.185 9.262v0.435c0 2.572 1.013 5.038 2.817 6.857z"></path>
</symbol>
<symbol id="icon-arrow" viewBox="0 0 32 32">
<path d="M4.378 14.587c-0.375 0.375-0.585 0.883-0.585 1.413s0.21 1.038 0.585 1.413l7.541 7.545c0.375 0.375 0.884 0.586 1.415 0.586s1.039-0.211 1.415-0.586c0.375-0.375 0.586-0.884 0.586-1.415s-0.211-1.039-0.586-1.415l-4.128-4.129h15.38c0.53 0 1.039-0.211 1.414-0.586s0.586-0.884 0.586-1.414-0.211-1.039-0.586-1.414c-0.375-0.375-0.884-0.586-1.414-0.586h-15.38l4.128-4.128c0.186-0.186 0.333-0.406 0.434-0.649s0.152-0.503 0.152-0.766-0.052-0.523-0.152-0.766c-0.1-0.243-0.248-0.463-0.434-0.649s-0.406-0.333-0.649-0.434c-0.243-0.101-0.503-0.152-0.766-0.152s-0.523 0.052-0.766 0.152c-0.243 0.101-0.463 0.248-0.649 0.434l-7.541 7.544z"></path>
</symbol>
<symbol id="icon-exit" viewBox="0 0 32 32">
<path d="M32 3.223l-3.223-3.223-12.777 12.777-12.777-12.777-3.223 3.223 12.777 12.777-12.777 12.777 3.223 3.223 12.777-12.777 12.777 12.777 3.223-3.223-12.777-12.777 12.777-12.777z"></path>
</symbol>
</defs>
</svg>
